# xmcd CD database file
#
# Track frame offsets:
#	150
#	28033
#	49393
#	78513
#	100549
#	121710
#	140008
#	162950
#	184053
#	207054
#
# Disc length: 3211 seconds
#
# Revision: 0
# Processed by: cddbd v1.5.2PL0 Copyright (c) Steve Scherf et al.
# Submitted via: CDex 1.70beta2
#
DISCID=7f0c890a
DTITLE=Richie Beirach - Laurie Antonioli - The Duo Session
DYEAR=1900
DGENRE=Jazz
TTITLE0=Richie Beirach - Laurie Antonioli - Flamenco Sketches
TTITLE1=Richie Beirach - Laurie Antonioli - You and the Night and the Music
TTITLE2=Richie Beirach - Laurie Antonioli - Blue in Green
TTITLE3=Richie Beirach - Laurie Antonioli - Green Dolphin Street
TTITLE4=Richie Beirach - Laurie Antonioli - New Souls
TTITLE5=Richie Beirach - Laurie Antonioli - The Island
TTITLE6=Richie Beirach - Laurie Antonioli - Moonlake
TTITLE7=Richie Beirach - Laurie Antonioli - Yon Don't Know What Love Is
TTITLE8=Richie Beirach - Laurie Antonioli - Sounds From Your Heart
TTITLE9=Richie Beirach - Laurie Antonioli - Memories, Dreams and Reflections
EXTD=
EXTT0=
EXTT1=
EXTT2=
EXTT3=
EXTT4=
EXTT5=
EXTT6=
EXTT7=
EXTT8=
EXTT9=
PLAYORDER=
